HIERARCHY
ROOT Hips
{
	OFFSET 0.000000 83.214638 0.000000
	CHANNELS 6 Xposition Yposition Zposition Xrotation Yrotation Zrotation
	JOINT Pelvis
	{
		OFFSET 0.000000 0.000000 0.000000
		CHANNELS 3 Xrotation Yrotation Zrotation
		JOINT LeftUpLeg
		{
			OFFSET 8.479700 -4.795502 -0.379100
			CHANNELS 3 Xrotation Yrotation Zrotation
			JOINT LeftLeg
			{
				OFFSET 0.024144 -32.555107 0.112900
				CHANNELS 3 Xrotation Yrotation Zrotation
				JOINT LeftFoot
				{
					OFFSET -0.024144 -32.638630 -3.012600
					CHANNELS 3 Xrotation Yrotation Zrotation
					JOINT LeftToeBase
					{
						OFFSET 0.970200 -13.225400 11.864200
						CHANNELS 3 Xrotation Yrotation Zrotation
						End Site
						{
							OFFSET 0.000000 12.319262 0.000000
						}
					}
					JOINT LFootTongue
					{
						OFFSET 1.142400 -1.059800 6.665200
						CHANNELS 3 Xrotation Yrotation Zrotation
						End Site
						{
							OFFSET 0.000000 12.319262 0.000000
						}
					}
				}
				JOINT LeftPantLeg
				{
					OFFSET 0.918482 -16.533964 -2.284700
					CHANNELS 3 Xrotation Yrotation Zrotation
					End Site
					{
						OFFSET 0.350399 24.744368 0.000000
					}
				}
			}
		}
		JOINT RightUpLeg
		{
			OFFSET -8.479700 -4.795502 -0.379100
			CHANNELS 3 Xrotation Yrotation Zrotation
			JOINT RightLeg
			{
				OFFSET -0.023144 -32.555092 0.112900
				CHANNELS 3 Xrotation Yrotation Zrotation
				JOINT RightFoot
				{
					OFFSET 0.023144 -32.638641 -3.012700
					CHANNELS 3 Xrotation Yrotation Zrotation
					JOINT RightToeBase
					{
						OFFSET -0.970200 -13.225400 11.864200
						CHANNELS 3 Xrotation Yrotation Zrotation
						End Site
						{
							OFFSET 0.000000 12.319244 0.000000
						}
					}
					JOINT RFootTongue
					{
						OFFSET -1.142200 -1.059800 6.665200
						CHANNELS 3 Xrotation Yrotation Zrotation
						End Site
						{
							OFFSET 0.000000 12.319243 0.000000
						}
					}
				}
				JOINT RightPantLeg
				{
					OFFSET -0.919482 -16.533978 -2.284800
					CHANNELS 3 Xrotation Yrotation Zrotation
					End Site
					{
						OFFSET -0.350400 24.744419 0.000000
					}
				}
			}
		}
	}
	JOINT Spine
	{
		OFFSET 0.000000 7.722000 1.166200
		CHANNELS 3 Xrotation Yrotation Zrotation
		JOINT Spine1
		{
			OFFSET 0.000000 12.024101 0.248800
			CHANNELS 3 Xrotation Yrotation Zrotation
			JOINT Spine2
			{
				OFFSET 0.000000 11.502998 -0.491200
				CHANNELS 3 Xrotation Yrotation Zrotation
				JOINT Neck
				{
					OFFSET 0.000000 18.430702 -3.123100
					CHANNELS 3 Xrotation Yrotation Zrotation
					JOINT Head
					{
						OFFSET 0.000000 9.051102 1.034000
						CHANNELS 3 Xrotation Yrotation Zrotation
						JOINT HairB
						{
							OFFSET 0.208400 24.786102 24.822300
							CHANNELS 3 Xrotation Yrotation Zrotation
							End Site
							{
								OFFSET 0.000000 32.263779 0.000000
							}
						}
						JOINT HairA
						{
							OFFSET -7.081100 24.428299 23.196600
							CHANNELS 3 Xrotation Yrotation Zrotation
							End Site
							{
								OFFSET 0.000000 32.263779 0.000000
							}
						}
						JOINT Hat
						{
							OFFSET 16.728800 15.048294 -15.439601
							CHANNELS 3 Xrotation Yrotation Zrotation
							End Site
							{
								OFFSET 0.000000 32.263779 0.000000
							}
						}
					}
				}
				JOINT LeftShoulder
				{
					OFFSET 6.197800 13.665199 -4.064700
					CHANNELS 3 Xrotation Yrotation Zrotation
					JOINT LeftArm
					{
						OFFSET 7.778100 -0.187103 -1.709300
						CHANNELS 3 Xrotation Yrotation Zrotation
						JOINT LeftForeArm
						{
							OFFSET 22.049376 0.000000 0.000000
							CHANNELS 3 Xrotation Yrotation Zrotation
							JOINT LeftHand
							{
								OFFSET 23.009392 0.000000 0.000000
								CHANNELS 3 Xrotation Yrotation Zrotation
								JOINT LeftHandThumb1
								{
									OFFSET 3.507191 -2.063065 3.133727
									CHANNELS 3 Xrotation Yrotation Zrotation
									JOINT LeftHandThumb2
									{
										OFFSET 3.101337 -1.790558 1.790558
										CHANNELS 3 Xrotation Yrotation Zrotation
										JOINT LeftHandThumb3
										{
											OFFSET 3.058640 -1.765907 1.765906
											CHANNELS 3 Xrotation Yrotation Zrotation
											End Site
											{
												OFFSET -0.415260 3.926476 -0.049563
											}
										}
									}
								}
								JOINT LeftHandIndex1
								{
									OFFSET 11.334419 -0.901459 3.706815
									CHANNELS 3 Xrotation Yrotation Zrotation
									JOINT LeftHandIndex2
									{
										OFFSET 3.283112 0.000000 0.000000
										CHANNELS 3 Xrotation Yrotation Zrotation
										JOINT LeftHandIndex3
										{
											OFFSET 3.323853 0.000000 0.000000
											CHANNELS 3 Xrotation Yrotation Zrotation
											End Site
											{
												OFFSET -1.135597 3.097809 0.402452
											}
										}
									}
								}
								JOINT LeftHandMiddle1
								{
									OFFSET 11.335861 0.000000 0.000000
									CHANNELS 3 Xrotation Yrotation Zrotation
									JOINT LeftHandMiddle2
									{
										OFFSET 3.410492 0.000000 0.000000
										CHANNELS 3 Xrotation Yrotation Zrotation
										JOINT LeftHandMiddle3
										{
											OFFSET 3.312172 0.000000 0.000000
											CHANNELS 3 Xrotation Yrotation Zrotation
											End Site
											{
												OFFSET -1.150200 3.080154 0.400270
											}
										}
									}
								}
								JOINT LeftHandRing1
								{
									OFFSET 11.514786 -0.013176 -3.003090
									CHANNELS 3 Xrotation Yrotation Zrotation
									JOINT LeftHandRing2
									{
										OFFSET 3.053307 0.000000 0.000000
										CHANNELS 3 Xrotation Yrotation Zrotation
										JOINT LeftHandRing3
										{
											OFFSET 3.295807 0.000000 0.000000
											CHANNELS 3 Xrotation Yrotation Zrotation
											End Site
											{
												OFFSET -1.281006 3.013344 0.375733
											}
										}
									}
								}
								JOINT LeftHandPinky1
								{
									OFFSET 10.518692 -0.960396 -5.730441
									CHANNELS 3 Xrotation Yrotation Zrotation
									JOINT LeftHandPinky2
									{
										OFFSET 2.861649 0.000000 0.000000
										CHANNELS 3 Xrotation Yrotation Zrotation
										JOINT LeftHandPinky3
										{
											OFFSET 2.863380 0.000000 0.000000
											CHANNELS 3 Xrotation Yrotation Zrotation
											End Site
											{
												OFFSET -0.843597 2.711159 0.369971
											}
										}
									}
								}
							}
							JOINT LSleeve
							{
								OFFSET 6.676277 -0.344902 -1.011730
								CHANNELS 3 Xrotation Yrotation Zrotation
								End Site
								{
									OFFSET 0.000000 14.885353 0.000000
								}
							}
						}
					}
				}
				JOINT RightShoulder
				{
					OFFSET -6.197800 13.665199 -4.064700
					CHANNELS 3 Xrotation Yrotation Zrotation
					JOINT RightArm
					{
						OFFSET -7.778100 -0.187103 -1.709300
						CHANNELS 3 Xrotation Yrotation Zrotation
						JOINT RightForeArm
						{
							OFFSET -22.049376 0.000000 0.000000
							CHANNELS 3 Xrotation Yrotation Zrotation
							JOINT RightHand
							{
								OFFSET -23.009392 0.000000 0.000000
								CHANNELS 3 Xrotation Yrotation Zrotation
								JOINT RightHandThumb1
								{
									OFFSET -3.507191 -2.063065 3.133727
									CHANNELS 3 Xrotation Yrotation Zrotation
									JOINT RightHandThumb2
									{
										OFFSET -3.101337 -1.790558 1.790558
										CHANNELS 3 Xrotation Yrotation Zrotation
										JOINT RightHandThumb3
										{
											OFFSET -3.058640 -1.765907 1.765906
											CHANNELS 3 Xrotation Yrotation Zrotation
											End Site
											{
												OFFSET 0.415260 3.926476 -0.049563
											}
										}
									}
								}
								JOINT RightHandIndex1
								{
									OFFSET -11.334419 -0.901459 3.706815
									CHANNELS 3 Xrotation Yrotation Zrotation
									JOINT RightHandIndex2
									{
										OFFSET -3.283112 0.000000 0.000000
										CHANNELS 3 Xrotation Yrotation Zrotation
										JOINT RightHandIndex3
										{
											OFFSET -3.323853 0.000000 0.000000
											CHANNELS 3 Xrotation Yrotation Zrotation
											End Site
											{
												OFFSET 1.135597 3.097809 0.402452
											}
										}
									}
								}
								JOINT RightHandMiddle1
								{
									OFFSET -11.335861 0.000000 0.000000
									CHANNELS 3 Xrotation Yrotation Zrotation
									JOINT RightHandMiddle2
									{
										OFFSET -3.410492 0.000000 0.000000
										CHANNELS 3 Xrotation Yrotation Zrotation
										JOINT RightHandMiddle3
										{
											OFFSET -3.312172 0.000000 0.000000
											CHANNELS 3 Xrotation Yrotation Zrotation
											End Site
											{
												OFFSET 1.150200 3.080154 0.400270
											}
										}
									}
								}
								JOINT RightHandRing1
								{
									OFFSET -11.514786 -0.013176 -3.003090
									CHANNELS 3 Xrotation Yrotation Zrotation
									JOINT RightHandRing2
									{
										OFFSET -3.053307 0.000000 0.000000
										CHANNELS 3 Xrotation Yrotation Zrotation
										JOINT RightHandRing3
										{
											OFFSET -3.295807 0.000000 0.000000
											CHANNELS 3 Xrotation Yrotation Zrotation
											End Site
											{
												OFFSET 1.281006 3.013344 0.375733
											}
										}
									}
								}
								JOINT RightHandPinky1
								{
									OFFSET -10.518692 -0.960396 -5.730441
									CHANNELS 3 Xrotation Yrotation Zrotation
									JOINT RightHandPinky2
									{
										OFFSET -2.861649 0.000000 0.000000
										CHANNELS 3 Xrotation Yrotation Zrotation
										JOINT RightHandPinky3
										{
											OFFSET -2.863380 0.000000 0.000000
											CHANNELS 3 Xrotation Yrotation Zrotation
											End Site
											{
												OFFSET 0.843597 2.711159 0.369971
											}
										}
									}
								}
							}
							JOINT RSleeve
							{
								OFFSET -6.676277 -0.344902 -1.011730
								CHANNELS 3 Xrotation Yrotation Zrotation
								End Site
								{
									OFFSET 0.000000 14.885353 0.000000
								}
							}
						}
					}
				}
				JOINT Backpack
				{
					OFFSET 0.000000 -2.471497 36.677502
					CHANNELS 3 Xrotation Yrotation Zrotation
					End Site
					{
						OFFSET 0.000000 20.427315 0.000000
					}
				}
				JOINT Hood
				{
					OFFSET 0.000000 18.754097 -10.431000
					CHANNELS 3 Xrotation Yrotation Zrotation
					JOINT Hood1
					{
						OFFSET 0.000000 -5.011002 -7.685901
						CHANNELS 3 Xrotation Yrotation Zrotation
						End Site
						{
							OFFSET 0.000000 9.175140 0.000000
						}
					}
				}
				JOINT LHoodieString
				{
					OFFSET 5.250500 16.397697 3.089900
					CHANNELS 3 Xrotation Yrotation Zrotation
					JOINT LHoodieString1
					{
						OFFSET 0.257700 -6.364304 3.694600
						CHANNELS 3 Xrotation Yrotation Zrotation
						JOINT LHoodieString2
						{
							OFFSET 0.000000 -9.643799 2.679100
							CHANNELS 3 Xrotation Yrotation Zrotation
							End Site
							{
								OFFSET 0.000000 10.009018 0.000000
							}
						}
					}
				}
				JOINT RHoodieString
				{
					OFFSET -5.250500 16.397697 3.089900
					CHANNELS 3 Xrotation Yrotation Zrotation
					JOINT RHoodieString1
					{
						OFFSET -0.257700 -6.364304 3.694600
						CHANNELS 3 Xrotation Yrotation Zrotation
						JOINT RHoodieString2
						{
							OFFSET 0.000000 -9.643799 2.679100
							CHANNELS 3 Xrotation Yrotation Zrotation
							End Site
							{
								OFFSET 0.000000 10.009018 0.000000
							}
						}
					}
				}
			}
			JOINT LBackpack_Strap
			{
				OFFSET 15.223200 -7.719803 -6.610900
				CHANNELS 3 Xrotation Yrotation Zrotation
				End Site
				{
					OFFSET 0.000000 16.040596 0.000000
				}
			}
			JOINT RBackpack_Strap
			{
				OFFSET -15.223000 -7.719803 -6.610900
				CHANNELS 3 Xrotation Yrotation Zrotation
				End Site
				{
					OFFSET 0.000000 16.040596 0.000000
				}
			}
		}
	}
	JOINT BoyFacialAnim_Joint
	{
		OFFSET 1.000000 -82.208099 -1.550900
		CHANNELS 3 Xrotation Yrotation Zrotation
		End Site
		{
			OFFSET 0.000000 30.012791 0.000000
		}
	}
}
MOTION
Frames: 4
Frame Time: 0.033333
1.745032 80.134590 1.009841 -8.862880 -4.171839 -4.416380 0.000000 0.000000 0.000000 -5.074377 14.201889 7.347734 31.650636 0.305665 2.535987 -19.114740 0.495439 -2.667784 -0.000000 0.000000 -0.000000 -0.000000 0.000000 -0.000000 -0.000001 0.000001 -0.000000 -3.942213 -4.959496 -1.674803 24.575335 0.961538 -3.790600 -11.580815 -0.375179 7.763765 0.000000 0.000000 0.000000 0.000000 0.000000 0.000000 -0.000001 0.000001 0.000000 2.038020 -0.230219 -5.450395 1.897024 -0.047717 -0.538571 1.897348 -0.026416 -0.541032 12.533143 -5.050450 -3.720803 12.971075 -27.789823 -9.203787 -0.000003 0.000003 -0.000001 -0.000003 0.000003 -0.000001 -0.000003 0.000003 -0.000001 1.151543 2.138908 -13.540474 4.556454 -2.457047 -58.958418 0.000001 -30.059201 0.000002 -10.237747 0.545629 0.997223 -1.376689 3.301566 -1.618431 -3.601702 28.183211 -2.619447 -0.000001 -0.000001 0.000000 -0.860060 -0.821176 -22.002990 1.032441 3.631620 -31.730603 -0.000001 0.000002 -0.000001 0.032165 1.265641 -19.314264 1.816086 4.663928 -42.532582 0.000003 -0.000002 -0.000002 2.124715 5.757419 -27.437140 0.733423 3.097193 -26.638841 0.000001 0.000000 -0.000002 3.195411 8.103292 -25.861524 0.498612 -1.492690 -22.273329 -0.000002 0.000002 0.000009 0.000000 -0.000002 0.000000 0.673831 5.970658 -0.288465 11.733264 -1.548285 61.779396 0.000030 114.411706 -0.000047 -39.807862 10.598306 5.977092 -13.139740 5.948529 19.146309 14.753808 -36.848546 5.893922 0.000001 0.000002 0.000001 -0.134968 7.490633 1.489802 1.065775 -3.704447 32.091613 0.000000 0.000002 0.000002 0.010425 -0.430393 5.184631 2.296700 -5.167222 47.905147 -0.000000 -0.000001 -0.000000 1.020513 -3.663268 27.624413 3.678377 -6.134105 61.868352 -0.000001 0.000000 0.000000 -4.273207 4.846337 32.660585 3.111973 -5.797547 56.422676 0.000001 -0.000001 -0.000002 0.000001 0.000001 -0.000001 0.000000 0.000000 -0.000001 0.000000 0.000000 -0.000001 0.000000 0.000000 -0.000001 0.000000 0.000000 -0.000001 0.000000 0.000000 -0.000001 0.000000 0.000000 -0.000001 0.000000 0.000000 -0.000001 0.000000 0.000000 -0.000001 0.000000 0.000000 -0.000001 -0.000000 -0.000000 -0.000001 -0.000000 -0.000000 -0.000001 0.000000 0.000000 0.000000 
1.753756 80.131752 0.984458 -8.872801 -4.006962 -4.335359 -0.000001 -0.000000 -0.000000 -5.096692 14.196942 7.316150 31.661762 0.139318 2.474677 -19.078634 0.484945 -2.570640 0.000000 0.000000 -0.000000 0.000000 0.000000 0.000000 -0.000001 -0.000001 -0.000000 -3.946696 -4.993982 -1.753090 24.625038 0.940647 -3.817680 -11.619870 -0.353144 7.805103 0.000000 -0.000000 0.000000 0.000000 -0.000000 0.000000 0.000001 -0.000000 0.000001 2.041982 -0.115664 -5.382441 1.891682 -0.031667 -0.537460 1.891996 -0.010503 -0.539606 12.557137 -5.055915 -3.660106 12.962511 -27.745627 -9.221381 -0.000001 -0.000002 -0.000003 -0.000001 -0.000002 -0.000003 -0.000001 -0.000002 -0.000003 1.169461 2.377798 -13.454962 4.557227 -2.648535 -58.955379 -0.000003 -29.855051 -0.000026 -10.104104 0.861243 0.955050 -1.375531 3.304391 -1.614338 -3.592172 28.178603 -2.631599 -0.000000 0.000000 -0.000001 -0.860431 -0.819506 -22.018100 1.031213 3.629641 -31.711096 -0.000003 0.000003 -0.000005 0.031470 1.263874 -19.319089 1.816356 4.664214 -42.535966 0.000002 -0.000002 0.000004 2.120023 5.747918 -27.442319 0.733365 3.097076 -26.637852 -0.000003 -0.000001 -0.000002 3.195737 8.099755 -25.880574 0.498934 -1.491905 -22.280333 0.000000 -0.000000 0.000002 -0.000000 0.000001 -0.000000 0.626006 5.557045 -0.078850 11.572209 -1.028178 61.476272 -0.000041 114.243090 0.000033 -40.016101 10.281982 6.015570 -13.074057 5.945071 19.155346 14.779795 -36.836347 5.913953 0.000001 0.000001 -0.000002 -0.125430 7.525893 1.414841 1.067555 -3.707246 32.118650 -0.000001 -0.000004 -0.000001 0.007895 -0.401131 5.150259 2.293742 -5.164551 47.872168 0.000003 0.000001 -0.000002 1.019079 -3.660690 27.615643 3.677399 -6.133578 61.859220 0.000003 0.000000 0.000002 -4.274929 4.837358 32.695538 3.108494 -5.795234 56.388119 -0.000000 -0.000000 0.000000 0.000000 -0.000001 -0.000001 -0.000000 -0.000000 0.000000 -0.000000 -0.000000 0.000000 -0.000000 -0.000000 0.000000 -0.000000 -0.000000 0.000000 -0.000000 -0.000000 0.000000 -0.000000 0.000000 0.000000 -0.000000 -0.000000 0.000000 -0.000000 -0.000000 0.000000 -0.000000 0.000000 0.000000 -0.000000 -0.000000 0.000001 -0.000000 -0.000000 0.000001 -0.000001 -0.000000 -0.000000 
1.757230 80.128929 0.972861 -8.921344 -3.808617 -4.220875 0.000000 -0.000000 0.000000 -5.040186 14.155523 7.250732 31.640920 -0.064211 2.398020 -19.036958 0.466960 -2.462406 -0.000000 0.000000 -0.000000 -0.000000 0.000000 0.000000 0.000000 -0.000000 -0.000000 -3.910653 -5.073558 -1.848539 24.705016 0.780021 -3.866681 -11.680082 -0.349069 7.871283 0.000000 -0.000001 0.000000 0.000000 -0.000001 0.000000 0.000001 -0.000000 -0.000000 2.078594 -0.048901 -5.351186 1.894715 -0.022090 -0.534925 1.895028 -0.000915 -0.536900 12.598082 -5.070268 -3.597373 12.914155 -27.736358 -9.260681 0.000001 -0.000001 0.000002 0.000001 -0.000001 0.000002 0.000001 -0.000001 0.000002 1.173098 2.474170 -13.261452 4.437270 -2.606742 -59.135464 0.000001 -29.543792 0.000025 -9.871783 0.988378 0.929671 -1.383686 3.309352 -1.604171 -3.579542 28.172452 -2.647782 0.000000 -0.000001 -0.000000 -0.860345 -0.817208 -22.030331 1.030736 3.628901 -31.703788 -0.000001 0.000002 -0.000005 0.030988 1.262612 -19.320973 1.816558 4.664446 -42.538480 -0.000000 -0.000002 -0.000000 2.115896 5.739754 -27.445317 0.733411 3.097164 -26.638650 0.000000 0.000001 -0.000000 3.196977 8.098361 -25.898269 0.499213 -1.491223 -22.286404 -0.000000 -0.000001 0.000003 -0.000000 0.000002 -0.000000 0.593132 5.302506 0.193043 11.445700 -0.719611 61.168627 -0.000012 114.184213 0.000001 -40.270194 9.898161 6.071522 -13.009779 5.946329 19.165101 14.807316 -36.823380 5.935280 0.000001 0.000000 -0.000002 -0.114898 7.560871 1.333404 1.069397 -3.710208 32.147569 -0.000000 0.000001 0.000004 0.005494 -0.372446 5.115374 2.290563 -5.161673 47.836842 0.000003 0.000000 -0.000002 1.018095 -3.659112 27.600175 3.676842 -6.133287 61.854050 -0.000002 -0.000001 0.000002 -4.272899 4.824719 32.723160 3.105540 -5.793280 56.358896 -0.000002 -0.000000 0.000000 -0.000003 0.000001 0.000001 -0.000000 -0.000000 0.000001 -0.000000 -0.000000 0.000001 -0.000000 -0.000000 0.000001 -0.000000 -0.000000 0.000001 -0.000000 -0.000000 0.000001 0.000000 0.000000 -0.000000 -0.000000 -0.000000 0.000001 -0.000000 -0.000000 0.000001 0.000000 0.000000 -0.000000 0.000000 -0.000000 -0.000000 0.000000 -0.000000 -0.000000 0.000000 -0.000000 0.000000 
1.758664 80.126289 0.978043 -9.006712 -3.570876 -4.064788 0.000000 0.000000 -0.000000 -4.906649 14.154066 7.093578 31.576429 -0.322166 2.434099 -18.985786 0.445614 -2.391934 0.000000 -0.000000 -0.000000 0.000000 -0.000000 0.000000 -0.000003 -0.000000 -0.000000 -3.839794 -5.251096 -2.015663 24.823771 0.574481 -3.882787 -11.771776 -0.351871 7.924157 0.000000 -0.000000 -0.000000 0.000000 -0.000000 -0.000000 -0.000000 0.000000 -0.000001 2.139203 -0.038340 -5.365552 1.909770 -0.020328 -0.531957 1.910087 0.001093 -0.533933 12.658210 -5.089908 -3.548640 12.835879 -27.774017 -9.281525 -0.000001 0.000002 0.000002 -0.000001 0.000002 0.000002 -0.000001 0.000002 0.000002 1.168349 2.469208 -13.019413 4.311283 -2.472960 -59.380251 0.000007 -29.187359 0.000016 -9.713360 0.953205 0.907237 -1.408982 3.315367 -1.585087 -3.562752 28.164140 -2.669272 0.000001 -0.000000 0.000001 -0.861312 -0.818687 -22.035800 1.030876 3.629081 -31.705783 -0.000001 0.000002 -0.000005 0.030425 1.260854 -19.317868 1.816530 4.664398 -42.538015 0.000004 -0.000001 0.000004 2.112180 5.732841 -27.444199 0.733561 3.097482 -26.641568 -0.000001 -0.000001 -0.000002 3.198768 8.098992 -25.911926 0.499397 -1.490765 -22.290474 -0.000001 0.000002 0.000000 -0.000001 0.000003 -0.000001 0.581450 5.284403 0.501846 11.410600 -0.668366 60.879027 -0.000066 114.257201 0.000065 -40.440160 9.621949 6.158689 -12.929130 5.945881 19.179782 14.816186 -36.819026 5.941784 0.000000 0.000001 -0.000002 -0.104316 7.597046 1.251849 1.071129 -3.712953 32.174238 -0.000001 -0.000000 -0.000000 0.003348 -0.345935 5.072107 2.287033 -5.158470 47.797490 0.000002 0.000001 0.000000 1.016667 -3.656825 27.574988 3.676842 -6.133258 61.853817 -0.000000 -0.000001 0.000002 -4.265583 4.808827 32.734508 3.102635 -5.791391 56.330278 -0.000005 -0.000000 0.000002 0.000000 -0.000002 -0.000000 -0.000000 -0.000000 0.000000 -0.000000 -0.000000 0.000000 -0.000000 -0.000000 0.000000 -0.000000 -0.000000 0.000000 -0.000000 -0.000000 0.000001 0.000000 0.000000 0.000001 -0.000000 -0.000000 0.000000 -0.000000 -0.000000 0.000001 0.000000 0.000000 0.000001 -0.000000 0.000000 0.000000 -0.000000 0.000000 0.000000 0.000000 0.000000 -0.000000 
